<svg width="1720" height="160" viewBox="0 0 1720 160" fill="none" xmlns="http://www.w3.org/2000/svg">
<path d="M29.3004 89.3893L32.1929 86.6264L29.3004 83.5983L26.408 86.6264L29.3004 89.3893ZM29.3004 -56.7347L26.408 -53.9718L29.3004 -50.9437L32.1929 -53.9718L29.3004 -56.7347ZM202.701 -26.2102L199.039 -24.6003L200.344 -21.6338L203.516 -22.2941L202.701 -26.2102ZM235.516 -19.9546L233.311 -16.6168L237.994 -13.5243L239.39 -18.9592L235.516 -19.9546ZM247.475 40.8489L250.681 38.4569L247.336 33.9732L244.175 38.5887L247.475 40.8489ZM202.701 58.865L203.516 54.9489L200.344 54.2885L199.039 57.2551L202.701 58.865ZM-47.2091 126.118C-15.9816 126.118 12.2063 113.076 32.1929 92.1522L26.408 86.6264C7.8681 106.035 -18.2561 118.118 -47.2091 118.118V126.118ZM-157 16.3273C-157 76.9632 -107.845 126.118 -47.2091 126.118V118.118C-103.427 118.118 -149 72.5449 -149 16.3273H-157ZM-47.2091 -93.4636C-107.845 -93.4636 -157 -44.3086 -157 16.3273H-149C-149 -39.8903 -103.427 -85.4636 -47.2091 -85.4636V-93.4636ZM32.1929 -59.4976C12.2063 -80.4213 -15.9816 -93.4636 -47.2091 -93.4636V-85.4636C-18.2561 -85.4636 7.8681 -73.3809 26.408 -53.9718L32.1929 -59.4976ZM105.81 -93.4636C74.5825 -93.4636 46.3946 -80.4213 26.408 -59.4976L32.1929 -53.9718C50.7328 -73.3809 76.857 -85.4636 105.81 -85.4636V-93.4636ZM206.363 -27.8201C189.372 -66.4651 150.749 -93.4636 105.81 -93.4636V-85.4636C147.462 -85.4636 183.28 -60.4457 199.039 -24.6003L206.363 -27.8201ZM203.516 -22.2941C206.122 -22.8366 208.826 -23.1225 211.601 -23.1225V-31.1225C208.275 -31.1225 205.025 -30.7797 201.886 -30.1263L203.516 -22.2941ZM211.601 -23.1225C219.629 -23.1225 227.086 -20.7287 233.311 -16.6168L237.72 -23.2923C230.227 -28.2415 221.244 -31.1225 211.601 -31.1225V-23.1225ZM305.048 -77.824C269.718 -77.824 240.044 -53.6522 231.642 -20.9499L239.39 -18.9592C246.906 -48.211 273.458 -69.824 305.048 -69.824V-77.824ZM380.835 -2.03736C380.835 -43.8932 346.904 -77.824 305.048 -77.824V-69.824C342.486 -69.824 372.835 -39.4749 372.835 -2.03736H380.835ZM305.048 73.7493C346.904 73.7493 380.835 39.8184 380.835 -2.03736H372.835C372.835 35.4002 342.486 65.7493 305.048 65.7493V73.7493ZM244.269 43.2409C258.079 61.751 280.163 73.7493 305.048 73.7493V65.7493C282.795 65.7493 263.046 55.0304 250.681 38.4569L244.269 43.2409ZM244.175 38.5887C237.061 48.9758 225.125 55.7773 211.601 55.7773V63.7773C227.875 63.7773 242.234 55.5808 250.775 43.1091L244.175 38.5887ZM211.601 55.7773C208.826 55.7773 206.122 55.4914 203.516 54.9489L201.886 62.781C205.025 63.4345 208.275 63.7773 211.601 63.7773V55.7773ZM105.81 126.118C150.748 126.118 189.372 99.1198 206.363 60.4749L199.039 57.2551C183.28 93.1004 147.462 118.118 105.81 118.118V126.118ZM26.408 92.1522C46.3946 113.076 74.5825 126.118 105.81 126.118V118.118C76.857 118.118 50.7328 106.035 32.1929 86.6264L26.408 92.1522Z" fill="#E5F2FF"/>
<path d="M137.155 50.8056L135.348 49.0788L137.155 47.1862L138.963 49.0788L137.155 50.8056ZM137.155 -18.151L138.963 -16.4242L137.155 -14.5316L135.348 -16.4242L137.155 -18.151ZM55.3268 -3.74638L57.6154 -2.74019L56.8002 -0.886097L54.8174 -1.29884L55.3268 -3.74638ZM39.8414 -0.794323L41.2192 1.29174L38.2928 3.22458L37.42 -0.172207L39.8414 -0.794323ZM34.1979 27.8991L32.1942 26.4041L34.2849 23.6019L36.2605 26.4865L34.1979 27.8991ZM55.3268 36.401L54.8174 33.9534L56.8002 33.5407L57.6154 35.3948L55.3268 36.401ZM173.261 68.7505C158.35 68.7505 144.89 62.5223 135.348 52.5324L138.963 49.0788C147.602 58.1221 159.772 63.7505 173.261 63.7505V68.7505ZM225.684 16.3273C225.684 45.2798 202.213 68.7505 173.261 68.7505V63.7505C199.452 63.7505 220.684 42.5184 220.684 16.3273H225.684ZM173.261 -36.0959C202.213 -36.0959 225.684 -12.6253 225.684 16.3273H220.684C220.684 -9.86384 199.452 -31.0959 173.261 -31.0959V-36.0959ZM135.348 -19.8778C144.89 -29.8677 158.35 -36.0959 173.261 -36.0959V-31.0959C159.772 -31.0959 147.602 -25.4675 138.963 -16.4242L135.348 -19.8778ZM101.05 -36.0959C115.961 -36.0959 129.421 -29.8677 138.963 -19.8778L135.348 -16.4242C126.709 -25.4675 114.539 -31.0959 101.05 -31.0959V-36.0959ZM53.0382 -4.75257C61.1503 -23.2036 79.5919 -36.0959 101.05 -36.0959V-31.0959C81.646 -31.0959 64.9582 -19.4415 57.6154 -2.74019L53.0382 -4.75257ZM54.8174 -1.29884C53.6283 -1.54636 52.3942 -1.67689 51.127 -1.67689V-6.67689C52.7386 -6.67689 54.314 -6.51078 55.8363 -6.19392L54.8174 -1.29884ZM51.127 -1.67689C47.4621 -1.67689 44.06 -0.584545 41.2192 1.29174L38.4636 -2.88039C42.0968 -5.28004 46.4526 -6.67689 51.127 -6.67689V-1.67689ZM7.02863 -28.7155C23.9874 -28.7155 38.2299 -17.1129 42.2627 -1.41644L37.42 -0.172207C33.9412 -13.7121 21.65 -23.7155 7.02863 -23.7155V-28.7155ZM-29.3478 7.66094C-29.3478 -12.4292 -13.0615 -28.7155 7.02863 -28.7155V-23.7155C-10.3001 -23.7155 -24.3478 -9.6678 -24.3478 7.66094H-29.3478ZM7.02863 44.0374C-13.0615 44.0374 -29.3478 27.7511 -29.3478 7.66094H-24.3478C-24.3478 24.9897 -10.3001 39.0374 7.02863 39.0374V44.0374ZM36.2016 29.3941C29.5738 38.2774 18.9736 44.0374 7.02863 44.0374V39.0374C17.3286 39.0374 26.4694 34.077 32.1942 26.4041L36.2016 29.3941ZM36.2605 26.4865C39.5083 31.2287 44.9556 34.3315 51.127 34.3315V39.3315C43.2366 39.3315 36.2753 35.3568 32.1353 29.3118L36.2605 26.4865ZM51.127 34.3315C52.3942 34.3315 53.6283 34.201 54.8174 33.9534L55.8363 38.8485C54.314 39.1654 52.7386 39.3315 51.127 39.3315V34.3315ZM101.05 68.7505C79.5919 68.7505 61.1503 55.8582 53.0382 37.4072L57.6154 35.3948C64.9582 52.0961 81.646 63.7505 101.05 63.7505V68.7505ZM138.963 52.5324C129.421 62.5223 115.961 68.7505 101.05 68.7505V63.7505C114.539 63.7505 126.709 58.1221 135.348 49.0788L138.963 52.5324Z" fill="#E5F2FF"/>
<path d="M1413.73 -11.2131L1412.21 -7.5126L1415.21 -6.2784L1417.04 -8.96959L1413.73 -11.2131ZM1413.73 69.2128L1417.04 66.9693L1415.21 64.2781L1412.21 65.5123L1413.73 69.2128ZM1540.99 29C1540.99 66.4375 1510.64 96.7866 1473.2 96.7866V104.787C1515.06 104.787 1548.99 70.8558 1548.99 29H1540.99ZM1473.2 -38.7866C1510.64 -38.7866 1540.99 -8.43751 1540.99 29H1548.99C1548.99 -12.8558 1515.06 -46.7866 1473.2 -46.7866V-38.7866ZM1417.04 -8.96959C1429.23 -26.9704 1449.84 -38.7866 1473.2 -38.7866V-46.7866C1447.07 -46.7866 1424.03 -33.5606 1410.41 -13.4565L1417.04 -8.96959ZM1397.24 -10.4501C1402.55 -10.4501 1407.6 -9.40475 1412.21 -7.5126L1415.25 -14.9135C1409.69 -17.1944 1403.61 -18.4501 1397.24 -18.4501V-10.4501ZM1357.79 28.9998C1357.79 7.21225 1375.45 -10.4501 1397.24 -10.4501V-18.4501C1371.03 -18.4501 1349.79 2.79397 1349.79 28.9998H1357.79ZM1397.24 68.4497C1375.45 68.4497 1357.79 50.7874 1357.79 28.9998H1349.79C1349.79 55.2056 1371.03 76.4497 1397.24 76.4497V68.4497ZM1412.21 65.5123C1407.6 67.4044 1402.55 68.4497 1397.24 68.4497V76.4497C1403.61 76.4497 1409.69 75.194 1415.24 72.9132L1412.21 65.5123ZM1473.2 96.7866C1449.84 96.7866 1429.23 84.9702 1417.04 66.9693L1410.41 71.4562C1424.03 91.5604 1447.07 104.787 1473.2 104.787V96.7866Z" fill="#E5F2FF"/>
<path d="M1583.6 -21.9239L1584.35 -20.0736L1582.85 -19.4565L1581.94 -20.8021L1583.6 -21.9239ZM1583.6 31.2187L1581.94 30.097L1582.85 28.7514L1584.35 29.3685L1583.6 31.2187ZM1498.86 4.64746C1498.86 29.74 1519.2 50.0815 1544.3 50.0815V54.0815C1516.99 54.0815 1494.86 31.9492 1494.86 4.64746H1498.86ZM1544.3 -40.7866C1519.2 -40.7866 1498.86 -20.4451 1498.86 4.64746H1494.86C1494.86 -22.6542 1516.99 -44.7866 1544.3 -44.7866V-40.7866ZM1581.94 -20.8021C1573.77 -32.8655 1559.96 -40.7866 1544.3 -40.7866V-44.7866C1561.34 -44.7866 1576.37 -36.1606 1585.25 -23.0456L1581.94 -20.8021ZM1594.49 -22.0627C1590.9 -22.0627 1587.48 -21.3551 1584.35 -20.0736L1582.84 -23.7741C1586.43 -25.25 1590.37 -26.0627 1594.49 -26.0627V-22.0627ZM1621.2 4.64739C1621.2 -10.1042 1609.24 -22.0627 1594.49 -22.0627V-26.0627C1611.45 -26.0627 1625.2 -12.3133 1625.2 4.64739H1621.2ZM1594.49 31.3575C1609.24 31.3575 1621.2 19.399 1621.2 4.64739H1625.2C1625.2 21.6081 1611.45 35.3575 1594.49 35.3575V31.3575ZM1584.35 29.3685C1587.48 30.6499 1590.9 31.3575 1594.49 31.3575V35.3575C1590.37 35.3575 1586.43 34.5448 1582.84 33.0689L1584.35 29.3685ZM1544.3 50.0815C1559.96 50.0815 1573.77 42.1604 1581.94 30.097L1585.25 32.3404C1576.37 45.4555 1561.34 54.0815 1544.3 54.0815V50.0815Z" fill="#E5F2FF"/>
</svg>
