<svg width="233" height="68" viewBox="0 0 233 68" fill="none" xmlns="http://www.w3.org/2000/svg">
<path fill-rule="evenodd" clip-rule="evenodd" d="M18.5802 11.7229L13.0929 17.9685L8.4104 33.9142L17.1902 39.0656L12.5076 46.9637L29.6491 54.2664L35.2514 49.0355L42.6933 48.3471L38.0944 54.702L52.8218 59.719L71.6247 49.685L72.2937 36.3063L65.4371 33.4634L75.1366 25.1852L60.002 16.6563L54.7341 22.0078L49.7171 23.1784L54.0652 17.9685L45.1182 8.46192L18.5802 11.7229Z" fill="#E1EFF8"/>
<path fill-rule="evenodd" clip-rule="evenodd" d="M18.5802 11.7229L13.0929 17.9685L8.4104 33.9142L17.1902 39.0656L12.5076 46.9637L29.6491 54.2664L35.2514 49.0355L42.6933 48.3471L38.0944 54.702L52.8218 59.719L71.6247 49.685L72.2937 36.3063L65.4371 33.4634L75.1366 25.1852L60.002 16.6563L54.7341 22.0078L49.7171 23.1784L54.0652 17.9685L45.1182 8.46192L18.5802 11.7229Z" fill="url(#paint0_linear_408_97)"/>
<path fill-rule="evenodd" clip-rule="evenodd" d="M18.0797 10.6674L12.2469 17.1597L6.79175 34.5803L15.6219 39.4182C14.0502 42.1879 12.3978 44.9082 10.7247 47.6175L29.7954 55.5357L35.8651 49.9355L40.5495 49.5479L35.7903 55.3005L52.555 61.045L72.7189 50.3709L73.3853 35.48L67.7058 33.2474L77.6114 25.112L59.8603 15.2897L53.9462 21.1L52.6115 21.4943L55.8351 18.3408L45.721 7.28467L18.0797 10.6674ZM18.1935 39.2663C16.0325 43.1468 13.9051 46.5916 13.9051 46.5916L29.3453 53.0025L34.7541 48.0121L44.9301 26.1337L21.7308 33.1716L18.1935 39.2663ZM35.6596 47.778L44.8913 47.0142L64.982 32.6637L64.9894 32.6741L73.7697 25.463L60.2257 17.9686L55.079 23.025L45.9133 25.7325L35.6596 47.778ZM45.8167 25.1099L52.7613 18.1913L19.1861 12.6885L14.2417 18.1819L21.632 32.4468L45.8167 25.1099ZM13.9078 19.1076L9.39047 33.5331L17.9606 38.2286L21.0533 32.9L13.9078 19.1076ZM21.9007 12.383L51.973 17.3296L44.8758 9.57131L21.9007 12.383ZM64.287 34.2319L53.4019 58.1448L70.6094 49.0357L71.1512 36.9302L64.287 34.2319ZM52.361 58.6878L63.2351 34.7992L44.544 48.1499L44.5322 48.1334L39.4582 54.2666L52.361 58.6878Z" fill="#172D79"/>
<path d="M106.61 21.6312H103.73C103.698 23.6792 103.666 25.7752 103.634 27.9192C103.634 30.0312 103.634 32.1592 103.634 34.3032V36.6072H106.802C109.714 36.6072 111.794 35.9032 113.042 34.4952C114.29 33.0552 114.914 31.2152 114.914 28.9752C114.914 26.6392 114.242 24.8312 112.898 23.5512C111.586 22.2712 109.49 21.6312 106.61 21.6312ZM94.562 21.3912V19.4232H107.474C111.538 19.4232 114.578 20.3192 116.594 22.1112C118.642 23.8712 119.666 26.1592 119.666 28.9752C119.666 30.7672 119.218 32.4152 118.322 33.9192C117.426 35.4232 115.986 36.6232 114.002 37.5192C112.05 38.4152 109.426 38.8632 106.13 38.8632H103.634C103.634 40.5912 103.634 42.2872 103.634 43.9512C103.666 45.6152 103.698 47.3112 103.73 49.0392L108.194 49.5672V51.5352H94.562V49.5672L98.978 49.0392C99.042 47.0232 99.074 44.9752 99.074 42.8952C99.074 40.8152 99.074 38.7352 99.074 36.6552V34.3032C99.074 32.2232 99.074 30.1592 99.074 28.1112C99.074 26.0312 99.042 23.9672 98.978 21.9192L94.562 21.3912ZM131.73 30.3192C130.834 30.3192 129.922 30.5752 128.994 31.0872C128.098 31.5992 127.314 32.4152 126.642 33.5352C126.002 34.6552 125.586 36.1432 125.394 37.9992H134.13C135.282 37.9992 136.034 37.7592 136.386 37.2792C136.77 36.7992 136.962 36.2072 136.962 35.5032C136.962 34.5752 136.722 33.7272 136.242 32.9592C135.794 32.1592 135.17 31.5192 134.37 31.0392C133.602 30.5592 132.722 30.3192 131.73 30.3192ZM131.682 52.1592C128.45 52.1592 125.858 51.1192 123.906 49.0392C121.954 46.9272 120.978 44.0312 120.978 40.3512C120.978 37.8872 121.474 35.7432 122.466 33.9192C123.49 32.0952 124.834 30.6712 126.498 29.6472C128.194 28.6232 130.034 28.1112 132.018 28.1112C133.682 28.1112 135.186 28.4792 136.53 29.2152C137.874 29.9512 138.946 31.0072 139.746 32.3832C140.546 33.7272 140.946 35.3752 140.946 37.3272C140.946 37.8712 140.914 38.3832 140.85 38.8632C140.786 39.3112 140.706 39.6952 140.61 40.0152H125.298C125.362 42.9592 126.098 45.1992 127.506 46.7352C128.914 48.2712 130.77 49.0392 133.074 49.0392C134.61 49.0392 135.89 48.7352 136.914 48.1272C137.938 47.4872 138.882 46.6712 139.746 45.6792L140.898 46.5912C140.002 48.2872 138.786 49.6472 137.25 50.6712C135.714 51.6632 133.858 52.1592 131.682 52.1592ZM153.127 52.1592C151.463 52.1592 150.135 51.7112 149.143 50.8152C148.151 49.9192 147.655 48.5432 147.655 46.6872C147.655 46.0792 147.655 45.4872 147.655 44.9112C147.687 44.3032 147.703 43.5352 147.703 42.6072V31.2792H143.719V29.1672L147.991 28.6392L149.239 22.2072H152.119L151.831 28.7352H158.311V31.2792H151.783V46.1592C151.783 47.3752 152.023 48.2712 152.503 48.8472C152.983 49.3912 153.623 49.6632 154.423 49.6632C154.967 49.6632 155.479 49.5512 155.959 49.3272C156.471 49.1032 157.031 48.7832 157.639 48.3672L158.791 49.6152C157.479 51.3112 155.591 52.1592 153.127 52.1592ZM162.352 51.5352V49.8072L165.808 49.1832C165.84 47.9672 165.856 46.6552 165.856 45.2472C165.888 43.8072 165.904 42.5432 165.904 41.4552V39.1512C165.904 37.8392 165.888 36.7512 165.856 35.8872C165.856 35.0232 165.824 34.1112 165.76 33.1512L161.968 32.7192V31.0392L168.688 28.1112L169.408 28.5912L169.936 34.2552C170.736 32.3352 171.76 30.8312 173.008 29.7432C174.288 28.6552 175.568 28.1112 176.848 28.1112C177.584 28.1112 178.272 28.2712 178.912 28.5912C179.552 28.9112 180.016 29.3432 180.304 29.8872C180.304 32.2232 179.36 33.3912 177.472 33.3912C176.928 33.3912 176.416 33.2952 175.936 33.1032C175.456 32.8792 174.992 32.5752 174.544 32.1912L173.968 31.6632C173.008 32.3672 172.208 33.2312 171.568 34.2552C170.928 35.2792 170.4 36.4792 169.984 37.8552V41.4552C169.984 42.5112 169.984 43.7432 169.984 45.1512C170.016 46.5592 170.048 47.8712 170.08 49.0872L174.016 49.8072V51.5352H162.352ZM192.836 52.1592C190.98 52.1592 189.204 51.7272 187.508 50.8632C185.844 49.9672 184.484 48.6392 183.428 46.8792C182.372 45.0872 181.844 42.8792 181.844 40.2552C181.844 37.5992 182.372 35.3752 183.428 33.5832C184.484 31.7592 185.844 30.3992 187.508 29.5032C189.204 28.5752 190.98 28.1112 192.836 28.1112C194.692 28.1112 196.452 28.5752 198.116 29.5032C199.812 30.3992 201.188 31.7592 202.244 33.5832C203.332 35.3752 203.876 37.5992 203.876 40.2552C203.876 42.8792 203.332 45.0872 202.244 46.8792C201.188 48.6392 199.812 49.9672 198.116 50.8632C196.452 51.7272 194.692 52.1592 192.836 52.1592ZM192.836 49.9992C194.916 49.9992 196.516 49.1832 197.636 47.5512C198.756 45.8872 199.316 43.4552 199.316 40.2552C199.316 37.0232 198.756 34.5592 197.636 32.8632C196.516 31.1672 194.916 30.3192 192.836 30.3192C190.756 30.3192 189.156 31.1672 188.036 32.8632C186.948 34.5592 186.404 37.0232 186.404 40.2552C186.404 43.4552 186.948 45.8872 188.036 47.5512C189.156 49.1832 190.756 49.9992 192.836 49.9992ZM214.668 52.1592C213.324 52.1592 212.092 51.9992 210.972 51.6792C209.852 51.3912 208.7 50.9432 207.516 50.3352L207.324 45.0552H209.964L210.876 49.2312C211.996 49.7432 213.292 49.9992 214.764 49.9992C216.588 49.9992 217.932 49.6632 218.796 48.9912C219.692 48.3192 220.14 47.4392 220.14 46.3512C220.14 45.3272 219.772 44.5112 219.036 43.9032C218.3 43.2632 217.18 42.6872 215.676 42.1752L213.468 41.3592C211.708 40.7192 210.3 39.8872 209.244 38.8632C208.188 37.8392 207.66 36.5112 207.66 34.8792C207.66 33.6952 207.98 32.5912 208.62 31.5672C209.26 30.5432 210.204 29.7112 211.452 29.0712C212.7 28.4312 214.22 28.1112 216.012 28.1112C217.324 28.1112 218.508 28.2872 219.564 28.6392C220.652 28.9592 221.708 29.4392 222.732 30.0792L222.54 34.9752H220.044L219.276 31.1352C218.188 30.5912 217.084 30.3192 215.964 30.3192C214.492 30.3192 213.372 30.6232 212.604 31.2312C211.868 31.8072 211.5 32.5912 211.5 33.5832C211.5 34.6392 211.82 35.4392 212.46 35.9832C213.132 36.5272 214.284 37.1032 215.916 37.7112L217.404 38.2392C219.804 39.1352 221.5 40.1592 222.492 41.3112C223.516 42.4632 224.028 43.7912 224.028 45.2952C224.028 46.5112 223.676 47.6472 222.972 48.7032C222.268 49.7272 221.228 50.5592 219.852 51.1992C218.476 51.8392 216.748 52.1592 214.668 52.1592Z" fill="#172D79"/>
<defs>
<linearGradient id="paint0_linear_408_97" x1="41.5803" y1="9.57124" x2="41.5803" y2="58.6909" gradientUnits="userSpaceOnUse">
<stop stop-color="white"/>
<stop offset="1" stop-color="white" stop-opacity="0"/>
</linearGradient>
</defs>
</svg>
